<svg xmlns="http://www.w3.org/2000/svg" viewBox="0 0 84.43 187.3875" x="0px" y="0px"><path d="M51.88,99.02c15.31-19.79,30.9-39.95,30.9-39.95,2.12-2.67,2.25-6.53,.1-9.37L47.18,2.45c-2.39-3.25-7.49-3.28-9.9-.03L1.58,49.03c-2.1,2.74-2.15,6.67,.12,9.47,.02,.02,16.08,19.95,33.02,40.96L5.53,140.84c-3.97,6.02,4.39,12.11,8.91,6.59,0,0,14.78-19.11,28.86-37.32,15.91,19.73,30.31,37.59,30.33,37.6,4.99,5.78,13.56-.97,9.23-7.15l-30.98-41.54Zm-8.66-11.61L17.87,53.42,42.19,16.94l24.48,37.21-23.45,33.26Z"/><text x="0" y="164.91" fill="#000000" font-size="5px" font-weight="bold" font-family="'Helvetica Neue', Helvetica, Arial-Unicode, Arial, Sans-serif">Created by Vital Intent</text><text x="0" y="169.91" fill="#000000" font-size="5px" font-weight="bold" font-family="'Helvetica Neue', Helvetica, Arial-Unicode, Arial, Sans-serif">from the Noun Project</text></svg>