<svg viewBox="0 0 14 14" xmlns="http://www.w3.org/2000/svg"><path d="m8.0723623 7.18707c.30788.26715.662959.48019 1.051589.62586.08545.0324.173049.0613.261716.0865.0029-.006.0061-.0123.0087-.0184.200812-.41061.339246-.85403.416011-1.3115.0858-.50902.09481-1.03464.02741-1.55016-.09626-.7383-.350056-1.45569-.761371-2.07287-.05659-.0851-.112473-.16726-.167644-.24695-.08796-.12689-.174114-.2473-.258113-.36087-.02192.0141-.0938.0476-.187272.089-.428759.19011-.753073.55851-.887029 1.00799.06273.0728.122573.14889.179518.22784.245856.33995.420707.70945.527774 1.09087.137697.48994.163303 1.00002.08291 1.49247-.0526.32445-.151401.64133-.294148.94018zm-1.496072 1.55883c-1.502924.8021-3.404934.39076-4.430561-1.02852-.5548-.76787-.749115-1.68714-.615022-2.55487-.317952 1.07791-.185661 2.23907.54762 3.25389 1.322669 1.82991 3.805795 2.3249 5.713947 1.20444-.38863-.20223-.752363-.45459-1.077168-.74587-.04725-.0422-.09339-.0851-.138816-.12907zm5.4201257-1.8508c-.374925-.65829-1.033188-1.29599-1.735458-1.69399.180256.77508-.06489 1.6035-.0721 1.64027.558786.27037.940918.73325 1.195073 1.19578v.00038c.538229.97767.59411 2.1969.04253 3.26216-.07281.14059-.15394.27433-.242989.40051-.440526.62837-1.064911 1.07356-1.7606827 1.2996.9387337-.17125 1.7844867-.659 2.3702987-1.48311.10491-.14673.201167-.30392.288032-.47189.68387-1.32122.623321-2.83138-.03027-4.05058-.01766-.0335-.03571-.0663-.05443-.0991zm-6.7165047 1.22243c.157161-.30354.352922-.57391.577867-.80824.355461-.36988.784085-.65035 1.250572-.82987.30029-.11572.616085-.18962.938024-.21845.07534-.49173.04507-1.00002-.09661-1.4878-.408804.0379-.815451.12978-1.207684.27002-.493541.17627-.963631.42827-1.385047.74444-.531732.39835-.985962.89804-1.312213 1.4741-.18891.33346-.34861.63989-.481283.92216.46504.25705.981648.40231 1.506882.42863.05594-.16765.125877-.33311.209494-.49499zm5.9176247 1.75495c.07354-.004.145285-.009.214871-.0141.08307-.54109-.02102-1.09431-.295021-1.56822l-.01395-.0241c-.287678.0779-.590507.11933-.9027.11933-.3482537 0-.6842237-.0516-1.0011117-.14709-.48849-.14744-.931172-.3998-1.30214-.7311-.201167-.17952-.38104-.38175-.53569-.60309-.461436.18026-.885391.45964-1.237249.82735.214871.30428.467224.58511.748404.83672.373834.33529.798854.61863 1.25453.83456.58977.28012 1.231108.4485 1.8810987.47299.444893.0165.839284.0151 1.188958-.003zm-4.4467767-5.22223c.03208-.40736.134475-.7949.295239-1.15036.000355-.001.0011-.003.0018-.004.543989-1.1983 1.750937-2.03176 3.1529357-2.03176.182768 0 .361932.014.537137.0415.732544.11428 1.389388.45857 1.893711.9564-.497853-.64385-1.169466-1.12188-1.977355-1.33637-.307825-.0818-.635168-.12547-.9805287-.12547-1.745531 0-3.25064 1.02959-3.940624 2.51523-.01261.027-.02487.0541-.03677.0815 0 .00035 0 .00035-.000355.00071-.235045.53391-.36518 1.12477-.36518 1.74556v.0112c.385736-.27075.808244-.48885 1.249507-.64639.05656-.0202.113537-.0397.170483-.0573z"/></svg>